<mxfile host="app.diagrams.net" agent="Mozilla/5.0 (Windows NT 10.0; Win64; x64; rv:133.0) Gecko/20100101 Firefox/133.0" version="26.0.4">
  <diagram name="Page-1" id="Zfw16q6aDVAe8OGPtLQg">
    <mxGraphModel dx="2248" dy="920" grid="1" gridSize="10" guides="1" tooltips="1" connect="1" arrows="1" fold="1" page="1" pageScale="1" pageWidth="827" pageHeight="1169" math="0" shadow="0">
      <root>
        <mxCell id="0" />
        <mxCell id="1" parent="0" />
        <mxCell id="PC9kTfX994w1YG4X2F00-1" value="" style="rounded=0;whiteSpace=wrap;html=1;" vertex="1" parent="1">
          <mxGeometry x="20" y="20" width="620" height="430" as="geometry" />
        </mxCell>
        <mxCell id="PC9kTfX994w1YG4X2F00-2" value="&amp;nbsp; Type" style="rounded=0;whiteSpace=wrap;html=1;align=left;" vertex="1" parent="1">
          <mxGeometry x="380" y="50" width="160" height="30" as="geometry" />
        </mxCell>
        <mxCell id="PC9kTfX994w1YG4X2F00-11" value="" style="rounded=0;whiteSpace=wrap;html=1;" vertex="1" parent="1">
          <mxGeometry x="70" y="140" width="160" height="80" as="geometry" />
        </mxCell>
        <mxCell id="PC9kTfX994w1YG4X2F00-13" value="Capteur Température Salon" style="text;html=1;align=center;verticalAlign=middle;whiteSpace=wrap;rounded=0;" vertex="1" parent="1">
          <mxGeometry x="70" y="140" width="160" height="30" as="geometry" />
        </mxCell>
        <mxCell id="PC9kTfX994w1YG4X2F00-14" value="19.5 °C" style="rounded=0;whiteSpace=wrap;html=1;" vertex="1" parent="1">
          <mxGeometry x="95" y="182.5" width="110" height="25" as="geometry" />
        </mxCell>
        <mxCell id="PC9kTfX994w1YG4X2F00-15" value="" style="rounded=0;whiteSpace=wrap;html=1;" vertex="1" parent="1">
          <mxGeometry x="254" y="140" width="160" height="80" as="geometry" />
        </mxCell>
        <mxCell id="PC9kTfX994w1YG4X2F00-16" value="Capteur Temp Cuisine" style="text;html=1;align=center;verticalAlign=middle;whiteSpace=wrap;rounded=0;" vertex="1" parent="1">
          <mxGeometry x="254" y="140" width="160" height="30" as="geometry" />
        </mxCell>
        <mxCell id="PC9kTfX994w1YG4X2F00-17" value="18.7 °C" style="rounded=0;whiteSpace=wrap;html=1;" vertex="1" parent="1">
          <mxGeometry x="279" y="182.5" width="110" height="25" as="geometry" />
        </mxCell>
        <mxCell id="PC9kTfX994w1YG4X2F00-21" value="&lt;div align=&quot;left&quot;&gt;&amp;nbsp; Search...&lt;/div&gt;" style="rounded=0;whiteSpace=wrap;html=1;align=left;" vertex="1" parent="1">
          <mxGeometry x="50" y="50" width="310" height="30" as="geometry" />
        </mxCell>
        <mxCell id="PC9kTfX994w1YG4X2F00-22" value="" style="triangle;whiteSpace=wrap;html=1;rotation=90;" vertex="1" parent="1">
          <mxGeometry x="510" y="55" width="20" height="25" as="geometry" />
        </mxCell>
        <mxCell id="PC9kTfX994w1YG4X2F00-26" value="" style="group" vertex="1" connectable="0" parent="1">
          <mxGeometry x="440" y="140" width="160" height="80" as="geometry" />
        </mxCell>
        <mxCell id="PC9kTfX994w1YG4X2F00-18" value="" style="rounded=0;whiteSpace=wrap;html=1;" vertex="1" parent="PC9kTfX994w1YG4X2F00-26">
          <mxGeometry width="160" height="80" as="geometry" />
        </mxCell>
        <mxCell id="PC9kTfX994w1YG4X2F00-19" value="Capteur Température Extérieur" style="text;html=1;align=center;verticalAlign=middle;whiteSpace=wrap;rounded=0;" vertex="1" parent="PC9kTfX994w1YG4X2F00-26">
          <mxGeometry width="160" height="30" as="geometry" />
        </mxCell>
        <mxCell id="PC9kTfX994w1YG4X2F00-20" value="12.1 °C" style="rounded=0;whiteSpace=wrap;html=1;" vertex="1" parent="PC9kTfX994w1YG4X2F00-26">
          <mxGeometry x="25" y="42.5" width="110" height="25" as="geometry" />
        </mxCell>
        <mxCell id="PC9kTfX994w1YG4X2F00-27" value="" style="group" vertex="1" connectable="0" parent="1">
          <mxGeometry x="70" y="250" width="160" height="80" as="geometry" />
        </mxCell>
        <mxCell id="PC9kTfX994w1YG4X2F00-28" value="" style="rounded=0;whiteSpace=wrap;html=1;" vertex="1" parent="PC9kTfX994w1YG4X2F00-27">
          <mxGeometry width="160" height="80" as="geometry" />
        </mxCell>
        <mxCell id="PC9kTfX994w1YG4X2F00-29" value="Capteur Humidité Extérieur" style="text;html=1;align=center;verticalAlign=middle;whiteSpace=wrap;rounded=0;" vertex="1" parent="PC9kTfX994w1YG4X2F00-27">
          <mxGeometry width="160" height="30" as="geometry" />
        </mxCell>
        <mxCell id="PC9kTfX994w1YG4X2F00-30" value="68 %" style="rounded=0;whiteSpace=wrap;html=1;" vertex="1" parent="PC9kTfX994w1YG4X2F00-27">
          <mxGeometry x="25" y="42.5" width="110" height="25" as="geometry" />
        </mxCell>
        <mxCell id="PC9kTfX994w1YG4X2F00-31" value="" style="group" vertex="1" connectable="0" parent="1">
          <mxGeometry x="254" y="250" width="160" height="80" as="geometry" />
        </mxCell>
        <mxCell id="PC9kTfX994w1YG4X2F00-32" value="" style="rounded=0;whiteSpace=wrap;html=1;" vertex="1" parent="PC9kTfX994w1YG4X2F00-31">
          <mxGeometry width="160" height="80" as="geometry" />
        </mxCell>
        <mxCell id="PC9kTfX994w1YG4X2F00-33" value="Volet Chambre Toto" style="text;html=1;align=center;verticalAlign=middle;whiteSpace=wrap;rounded=0;" vertex="1" parent="PC9kTfX994w1YG4X2F00-31">
          <mxGeometry width="160" height="30" as="geometry" />
        </mxCell>
        <mxCell id="PC9kTfX994w1YG4X2F00-34" value="Fermé" style="rounded=0;whiteSpace=wrap;html=1;" vertex="1" parent="PC9kTfX994w1YG4X2F00-31">
          <mxGeometry x="25" y="42.5" width="110" height="25" as="geometry" />
        </mxCell>
        <mxCell id="PC9kTfX994w1YG4X2F00-23" value="&lt;div&gt;&lt;span style=&quot;white-space: pre;&quot;&gt;&#x9;&lt;/span&gt;Température&lt;/div&gt;&lt;div&gt;&lt;br&gt;&lt;/div&gt;&lt;div&gt;&lt;span style=&quot;white-space: pre;&quot;&gt;&#x9;&lt;/span&gt;Humidité&lt;/div&gt;&lt;div&gt;&lt;br&gt;&lt;/div&gt;&lt;div&gt;&lt;span style=&quot;white-space: pre;&quot;&gt;&#x9;&lt;/span&gt;Volet&lt;br&gt;&lt;/div&gt;" style="rounded=0;whiteSpace=wrap;html=1;align=left;" vertex="1" parent="1">
          <mxGeometry x="380" y="84" width="160" height="96" as="geometry" />
        </mxCell>
        <mxCell id="PC9kTfX994w1YG4X2F00-95" value="" style="rounded=0;whiteSpace=wrap;html=1;" vertex="1" parent="1">
          <mxGeometry x="389" y="99" width="11" height="10" as="geometry" />
        </mxCell>
        <mxCell id="PC9kTfX994w1YG4X2F00-96" value="" style="rounded=0;whiteSpace=wrap;html=1;" vertex="1" parent="1">
          <mxGeometry x="389" y="127" width="11" height="10" as="geometry" />
        </mxCell>
        <mxCell id="PC9kTfX994w1YG4X2F00-97" value="" style="rounded=0;whiteSpace=wrap;html=1;" vertex="1" parent="1">
          <mxGeometry x="389" y="156" width="11" height="10" as="geometry" />
        </mxCell>
        <mxCell id="PC9kTfX994w1YG4X2F00-98" value="" style="verticalLabelPosition=bottom;verticalAlign=top;html=1;shape=mxgraph.basic.tick" vertex="1" parent="1">
          <mxGeometry x="390" y="156" width="10" height="10" as="geometry" />
        </mxCell>
        <mxCell id="PC9kTfX994w1YG4X2F00-99" value="" style="verticalLabelPosition=bottom;verticalAlign=top;html=1;shape=mxgraph.basic.tick" vertex="1" parent="1">
          <mxGeometry x="389.5" y="127" width="10" height="10" as="geometry" />
        </mxCell>
        <mxCell id="PC9kTfX994w1YG4X2F00-100" value="" style="verticalLabelPosition=bottom;verticalAlign=top;html=1;shape=mxgraph.basic.tick" vertex="1" parent="1">
          <mxGeometry x="390" y="99" width="10" height="10" as="geometry" />
        </mxCell>
        <mxCell id="PC9kTfX994w1YG4X2F00-103" value="" style="shape=flexArrow;endArrow=classic;html=1;rounded=0;fillColor=#FF0000;width=7.428571428571429;endSize=5.902857142857143;strokeColor=#FF0000;" edge="1" parent="1">
          <mxGeometry width="50" height="50" relative="1" as="geometry">
            <mxPoint x="45" y="220" as="sourcePoint" />
            <mxPoint x="95" y="170" as="targetPoint" />
          </mxGeometry>
        </mxCell>
        <mxCell id="PC9kTfX994w1YG4X2F00-104" value="" style="rounded=0;whiteSpace=wrap;html=1;" vertex="1" parent="1">
          <mxGeometry x="780" y="20" width="640" height="430" as="geometry" />
        </mxCell>
        <mxCell id="PC9kTfX994w1YG4X2F00-105" value="&lt;font style=&quot;font-size: 24px;&quot;&gt;Capteur Température Salon&lt;/font&gt;" style="text;html=1;align=center;verticalAlign=middle;whiteSpace=wrap;rounded=0;" vertex="1" parent="1">
          <mxGeometry x="805" y="40" width="315" height="30" as="geometry" />
        </mxCell>
        <mxCell id="PC9kTfX994w1YG4X2F00-106" value="&lt;font style=&quot;font-size: 24px;&quot;&gt;19.5 °C&lt;/font&gt;" style="rounded=0;whiteSpace=wrap;html=1;" vertex="1" parent="1">
          <mxGeometry x="1149" y="31.25" width="130.5" height="47.5" as="geometry" />
        </mxCell>
        <mxCell id="PC9kTfX994w1YG4X2F00-107" value="" style="shape=table;startSize=0;container=1;collapsible=0;childLayout=tableLayout;" vertex="1" parent="1">
          <mxGeometry x="810" y="110" width="250" height="340" as="geometry" />
        </mxCell>
        <mxCell id="PC9kTfX994w1YG4X2F00-108" value="" style="shape=tableRow;horizontal=0;startSize=0;swimlaneHead=0;swimlaneBody=0;strokeColor=inherit;top=0;left=0;bottom=0;right=0;collapsible=0;dropTarget=0;fillColor=none;points=[[0,0.5],[1,0.5]];portConstraint=eastwest;" vertex="1" parent="PC9kTfX994w1YG4X2F00-107">
          <mxGeometry width="250" height="40" as="geometry" />
        </mxCell>
        <mxCell id="PC9kTfX994w1YG4X2F00-109" value="Date" style="shape=partialRectangle;html=1;whiteSpace=wrap;connectable=0;strokeColor=inherit;overflow=hidden;fillColor=none;top=0;left=0;bottom=0;right=0;pointerEvents=1;" vertex="1" parent="PC9kTfX994w1YG4X2F00-108">
          <mxGeometry width="125" height="40" as="geometry">
            <mxRectangle width="125" height="40" as="alternateBounds" />
          </mxGeometry>
        </mxCell>
        <mxCell id="PC9kTfX994w1YG4X2F00-110" value="Valeur" style="shape=partialRectangle;html=1;whiteSpace=wrap;connectable=0;strokeColor=inherit;overflow=hidden;fillColor=none;top=0;left=0;bottom=0;right=0;pointerEvents=1;" vertex="1" parent="PC9kTfX994w1YG4X2F00-108">
          <mxGeometry x="125" width="125" height="40" as="geometry">
            <mxRectangle width="125" height="40" as="alternateBounds" />
          </mxGeometry>
        </mxCell>
        <mxCell id="PC9kTfX994w1YG4X2F00-111" value="" style="shape=tableRow;horizontal=0;startSize=0;swimlaneHead=0;swimlaneBody=0;strokeColor=inherit;top=0;left=0;bottom=0;right=0;collapsible=0;dropTarget=0;fillColor=none;points=[[0,0.5],[1,0.5]];portConstraint=eastwest;" vertex="1" parent="PC9kTfX994w1YG4X2F00-107">
          <mxGeometry y="40" width="250" height="40" as="geometry" />
        </mxCell>
        <mxCell id="PC9kTfX994w1YG4X2F00-112" value="07/01/2025 16:10:42" style="shape=partialRectangle;html=1;whiteSpace=wrap;connectable=0;strokeColor=inherit;overflow=hidden;fillColor=none;top=0;left=0;bottom=0;right=0;pointerEvents=1;" vertex="1" parent="PC9kTfX994w1YG4X2F00-111">
          <mxGeometry width="125" height="40" as="geometry">
            <mxRectangle width="125" height="40" as="alternateBounds" />
          </mxGeometry>
        </mxCell>
        <mxCell id="PC9kTfX994w1YG4X2F00-113" value="19.5 °C" style="shape=partialRectangle;html=1;whiteSpace=wrap;connectable=0;strokeColor=inherit;overflow=hidden;fillColor=none;top=0;left=0;bottom=0;right=0;pointerEvents=1;" vertex="1" parent="PC9kTfX994w1YG4X2F00-111">
          <mxGeometry x="125" width="125" height="40" as="geometry">
            <mxRectangle width="125" height="40" as="alternateBounds" />
          </mxGeometry>
        </mxCell>
        <mxCell id="PC9kTfX994w1YG4X2F00-114" value="" style="shape=tableRow;horizontal=0;startSize=0;swimlaneHead=0;swimlaneBody=0;strokeColor=inherit;top=0;left=0;bottom=0;right=0;collapsible=0;dropTarget=0;fillColor=none;points=[[0,0.5],[1,0.5]];portConstraint=eastwest;" vertex="1" parent="PC9kTfX994w1YG4X2F00-107">
          <mxGeometry y="80" width="250" height="40" as="geometry" />
        </mxCell>
        <mxCell id="PC9kTfX994w1YG4X2F00-115" value="07/01/2025 16:05:41" style="shape=partialRectangle;html=1;whiteSpace=wrap;connectable=0;strokeColor=inherit;overflow=hidden;fillColor=none;top=0;left=0;bottom=0;right=0;pointerEvents=1;" vertex="1" parent="PC9kTfX994w1YG4X2F00-114">
          <mxGeometry width="125" height="40" as="geometry">
            <mxRectangle width="125" height="40" as="alternateBounds" />
          </mxGeometry>
        </mxCell>
        <mxCell id="PC9kTfX994w1YG4X2F00-116" value="19.4 °C" style="shape=partialRectangle;html=1;whiteSpace=wrap;connectable=0;strokeColor=inherit;overflow=hidden;fillColor=none;top=0;left=0;bottom=0;right=0;pointerEvents=1;" vertex="1" parent="PC9kTfX994w1YG4X2F00-114">
          <mxGeometry x="125" width="125" height="40" as="geometry">
            <mxRectangle width="125" height="40" as="alternateBounds" />
          </mxGeometry>
        </mxCell>
        <mxCell id="PC9kTfX994w1YG4X2F00-117" value="" style="shape=tableRow;horizontal=0;startSize=0;swimlaneHead=0;swimlaneBody=0;strokeColor=inherit;top=0;left=0;bottom=0;right=0;collapsible=0;dropTarget=0;fillColor=none;points=[[0,0.5],[1,0.5]];portConstraint=eastwest;" vertex="1" parent="PC9kTfX994w1YG4X2F00-107">
          <mxGeometry y="120" width="250" height="40" as="geometry" />
        </mxCell>
        <mxCell id="PC9kTfX994w1YG4X2F00-118" value="07/01/2025 16:00:41" style="shape=partialRectangle;html=1;whiteSpace=wrap;connectable=0;strokeColor=inherit;overflow=hidden;fillColor=none;top=0;left=0;bottom=0;right=0;pointerEvents=1;" vertex="1" parent="PC9kTfX994w1YG4X2F00-117">
          <mxGeometry width="125" height="40" as="geometry">
            <mxRectangle width="125" height="40" as="alternateBounds" />
          </mxGeometry>
        </mxCell>
        <mxCell id="PC9kTfX994w1YG4X2F00-119" value="19.5 °C" style="shape=partialRectangle;html=1;whiteSpace=wrap;connectable=0;strokeColor=inherit;overflow=hidden;fillColor=none;top=0;left=0;bottom=0;right=0;pointerEvents=1;" vertex="1" parent="PC9kTfX994w1YG4X2F00-117">
          <mxGeometry x="125" width="125" height="40" as="geometry">
            <mxRectangle width="125" height="40" as="alternateBounds" />
          </mxGeometry>
        </mxCell>
        <mxCell id="PC9kTfX994w1YG4X2F00-120" value="" style="shape=tableRow;horizontal=0;startSize=0;swimlaneHead=0;swimlaneBody=0;strokeColor=inherit;top=0;left=0;bottom=0;right=0;collapsible=0;dropTarget=0;fillColor=none;points=[[0,0.5],[1,0.5]];portConstraint=eastwest;" vertex="1" parent="PC9kTfX994w1YG4X2F00-107">
          <mxGeometry y="160" width="250" height="40" as="geometry" />
        </mxCell>
        <mxCell id="PC9kTfX994w1YG4X2F00-121" value="07/01/2025 15:55:41" style="shape=partialRectangle;html=1;whiteSpace=wrap;connectable=0;strokeColor=inherit;overflow=hidden;fillColor=none;top=0;left=0;bottom=0;right=0;pointerEvents=1;" vertex="1" parent="PC9kTfX994w1YG4X2F00-120">
          <mxGeometry width="125" height="40" as="geometry">
            <mxRectangle width="125" height="40" as="alternateBounds" />
          </mxGeometry>
        </mxCell>
        <mxCell id="PC9kTfX994w1YG4X2F00-122" value="19.6 °C" style="shape=partialRectangle;html=1;whiteSpace=wrap;connectable=0;strokeColor=inherit;overflow=hidden;fillColor=none;top=0;left=0;bottom=0;right=0;pointerEvents=1;" vertex="1" parent="PC9kTfX994w1YG4X2F00-120">
          <mxGeometry x="125" width="125" height="40" as="geometry">
            <mxRectangle width="125" height="40" as="alternateBounds" />
          </mxGeometry>
        </mxCell>
        <mxCell id="PC9kTfX994w1YG4X2F00-123" value="" style="shape=tableRow;horizontal=0;startSize=0;swimlaneHead=0;swimlaneBody=0;strokeColor=inherit;top=0;left=0;bottom=0;right=0;collapsible=0;dropTarget=0;fillColor=none;points=[[0,0.5],[1,0.5]];portConstraint=eastwest;" vertex="1" parent="PC9kTfX994w1YG4X2F00-107">
          <mxGeometry y="200" width="250" height="40" as="geometry" />
        </mxCell>
        <mxCell id="PC9kTfX994w1YG4X2F00-124" value="03/01/2025 12:01:37" style="shape=partialRectangle;html=1;whiteSpace=wrap;connectable=0;strokeColor=inherit;overflow=hidden;fillColor=none;top=0;left=0;bottom=0;right=0;pointerEvents=1;" vertex="1" parent="PC9kTfX994w1YG4X2F00-123">
          <mxGeometry width="125" height="40" as="geometry">
            <mxRectangle width="125" height="40" as="alternateBounds" />
          </mxGeometry>
        </mxCell>
        <mxCell id="PC9kTfX994w1YG4X2F00-125" value="18.3 °C" style="shape=partialRectangle;html=1;whiteSpace=wrap;connectable=0;strokeColor=inherit;overflow=hidden;fillColor=none;top=0;left=0;bottom=0;right=0;pointerEvents=1;" vertex="1" parent="PC9kTfX994w1YG4X2F00-123">
          <mxGeometry x="125" width="125" height="40" as="geometry">
            <mxRectangle width="125" height="40" as="alternateBounds" />
          </mxGeometry>
        </mxCell>
        <mxCell id="PC9kTfX994w1YG4X2F00-126" value="" style="shape=tableRow;horizontal=0;startSize=0;swimlaneHead=0;swimlaneBody=0;strokeColor=inherit;top=0;left=0;bottom=0;right=0;collapsible=0;dropTarget=0;fillColor=none;points=[[0,0.5],[1,0.5]];portConstraint=eastwest;" vertex="1" parent="PC9kTfX994w1YG4X2F00-107">
          <mxGeometry y="240" width="250" height="40" as="geometry" />
        </mxCell>
        <mxCell id="PC9kTfX994w1YG4X2F00-127" value="03/01/2025 11:56:37" style="shape=partialRectangle;html=1;whiteSpace=wrap;connectable=0;strokeColor=inherit;overflow=hidden;fillColor=none;top=0;left=0;bottom=0;right=0;pointerEvents=1;" vertex="1" parent="PC9kTfX994w1YG4X2F00-126">
          <mxGeometry width="125" height="40" as="geometry">
            <mxRectangle width="125" height="40" as="alternateBounds" />
          </mxGeometry>
        </mxCell>
        <mxCell id="PC9kTfX994w1YG4X2F00-128" value="18.3 °C" style="shape=partialRectangle;html=1;whiteSpace=wrap;connectable=0;strokeColor=inherit;overflow=hidden;fillColor=none;top=0;left=0;bottom=0;right=0;pointerEvents=1;" vertex="1" parent="PC9kTfX994w1YG4X2F00-126">
          <mxGeometry x="125" width="125" height="40" as="geometry">
            <mxRectangle width="125" height="40" as="alternateBounds" />
          </mxGeometry>
        </mxCell>
        <mxCell id="PC9kTfX994w1YG4X2F00-129" value="" style="shape=tableRow;horizontal=0;startSize=0;swimlaneHead=0;swimlaneBody=0;strokeColor=inherit;top=0;left=0;bottom=0;right=0;collapsible=0;dropTarget=0;fillColor=none;points=[[0,0.5],[1,0.5]];portConstraint=eastwest;" vertex="1" parent="PC9kTfX994w1YG4X2F00-107">
          <mxGeometry y="280" width="250" height="40" as="geometry" />
        </mxCell>
        <mxCell id="PC9kTfX994w1YG4X2F00-130" value="03/01/2025 11:51:37" style="shape=partialRectangle;html=1;whiteSpace=wrap;connectable=0;strokeColor=inherit;overflow=hidden;fillColor=none;top=0;left=0;bottom=0;right=0;pointerEvents=1;" vertex="1" parent="PC9kTfX994w1YG4X2F00-129">
          <mxGeometry width="125" height="40" as="geometry">
            <mxRectangle width="125" height="40" as="alternateBounds" />
          </mxGeometry>
        </mxCell>
        <mxCell id="PC9kTfX994w1YG4X2F00-131" value="18.2 °C" style="shape=partialRectangle;html=1;whiteSpace=wrap;connectable=0;strokeColor=inherit;overflow=hidden;fillColor=none;top=0;left=0;bottom=0;right=0;pointerEvents=1;" vertex="1" parent="PC9kTfX994w1YG4X2F00-129">
          <mxGeometry x="125" width="125" height="40" as="geometry">
            <mxRectangle width="125" height="40" as="alternateBounds" />
          </mxGeometry>
        </mxCell>
        <mxCell id="PC9kTfX994w1YG4X2F00-132" value="" style="shape=tableRow;horizontal=0;startSize=0;swimlaneHead=0;swimlaneBody=0;strokeColor=inherit;top=0;left=0;bottom=0;right=0;collapsible=0;dropTarget=0;fillColor=none;points=[[0,0.5],[1,0.5]];portConstraint=eastwest;" vertex="1" parent="PC9kTfX994w1YG4X2F00-107">
          <mxGeometry y="320" width="250" height="20" as="geometry" />
        </mxCell>
        <mxCell id="PC9kTfX994w1YG4X2F00-133" value="" style="shape=partialRectangle;html=1;whiteSpace=wrap;connectable=0;strokeColor=inherit;overflow=hidden;fillColor=none;top=0;left=0;bottom=0;right=0;pointerEvents=1;" vertex="1" parent="PC9kTfX994w1YG4X2F00-132">
          <mxGeometry width="125" height="20" as="geometry">
            <mxRectangle width="125" height="20" as="alternateBounds" />
          </mxGeometry>
        </mxCell>
        <mxCell id="PC9kTfX994w1YG4X2F00-134" value="" style="shape=partialRectangle;html=1;whiteSpace=wrap;connectable=0;strokeColor=inherit;overflow=hidden;fillColor=none;top=0;left=0;bottom=0;right=0;pointerEvents=1;" vertex="1" parent="PC9kTfX994w1YG4X2F00-132">
          <mxGeometry x="125" width="125" height="20" as="geometry">
            <mxRectangle width="125" height="20" as="alternateBounds" />
          </mxGeometry>
        </mxCell>
        <mxCell id="PC9kTfX994w1YG4X2F00-135" value="" style="whiteSpace=wrap;html=1;aspect=fixed;" vertex="1" parent="1">
          <mxGeometry x="1094" y="140" width="280" height="280" as="geometry" />
        </mxCell>
        <mxCell id="PC9kTfX994w1YG4X2F00-136" value="" style="endArrow=classic;html=1;rounded=0;entryX=0;entryY=0;entryDx=0;entryDy=0;" edge="1" parent="1">
          <mxGeometry width="50" height="50" relative="1" as="geometry">
            <mxPoint x="1110" y="400" as="sourcePoint" />
            <mxPoint x="1110" y="150" as="targetPoint" />
          </mxGeometry>
        </mxCell>
        <mxCell id="PC9kTfX994w1YG4X2F00-137" value="" style="endArrow=classic;html=1;rounded=0;" edge="1" parent="1">
          <mxGeometry width="50" height="50" relative="1" as="geometry">
            <mxPoint x="1110" y="400" as="sourcePoint" />
            <mxPoint x="1350" y="400" as="targetPoint" />
          </mxGeometry>
        </mxCell>
        <mxCell id="PC9kTfX994w1YG4X2F00-142" value="" style="endArrow=none;html=1;rounded=0;strokeColor=#FF0000;" edge="1" parent="1">
          <mxGeometry width="50" height="50" relative="1" as="geometry">
            <mxPoint x="1110" y="290" as="sourcePoint" />
            <mxPoint x="1150" y="290" as="targetPoint" />
          </mxGeometry>
        </mxCell>
        <mxCell id="PC9kTfX994w1YG4X2F00-143" value="" style="endArrow=none;html=1;rounded=0;strokeColor=#FF0000;" edge="1" parent="1">
          <mxGeometry width="50" height="50" relative="1" as="geometry">
            <mxPoint x="1150" y="399" as="sourcePoint" />
            <mxPoint x="1150" y="289" as="targetPoint" />
          </mxGeometry>
        </mxCell>
        <mxCell id="PC9kTfX994w1YG4X2F00-144" value="" style="endArrow=none;html=1;rounded=0;strokeColor=#FF0000;" edge="1" parent="1">
          <mxGeometry width="50" height="50" relative="1" as="geometry">
            <mxPoint x="1150" y="399" as="sourcePoint" />
            <mxPoint x="1280" y="399" as="targetPoint" />
          </mxGeometry>
        </mxCell>
        <mxCell id="PC9kTfX994w1YG4X2F00-145" value="" style="endArrow=none;html=1;rounded=0;strokeColor=#FF0000;" edge="1" parent="1">
          <mxGeometry width="50" height="50" relative="1" as="geometry">
            <mxPoint x="1279.5" y="260" as="sourcePoint" />
            <mxPoint x="1340" y="260" as="targetPoint" />
          </mxGeometry>
        </mxCell>
        <mxCell id="PC9kTfX994w1YG4X2F00-146" value="" style="endArrow=none;html=1;rounded=0;strokeColor=#FF0000;" edge="1" parent="1">
          <mxGeometry width="50" height="50" relative="1" as="geometry">
            <mxPoint x="1279.75" y="400" as="sourcePoint" />
            <mxPoint x="1280" y="260" as="targetPoint" />
          </mxGeometry>
        </mxCell>
        <mxCell id="PC9kTfX994w1YG4X2F00-147" value="" style="rounded=0;whiteSpace=wrap;html=1;" vertex="1" parent="1">
          <mxGeometry x="1400" y="24.75" width="10" height="421.25" as="geometry" />
        </mxCell>
        <mxCell id="PC9kTfX994w1YG4X2F00-148" value="" style="rounded=0;whiteSpace=wrap;html=1;" vertex="1" parent="1">
          <mxGeometry x="1400" y="38.75" width="10" height="31.25" as="geometry" />
        </mxCell>
        <mxCell id="PC9kTfX994w1YG4X2F00-149" value="" style="endArrow=none;html=1;rounded=0;" edge="1" parent="1">
          <mxGeometry width="50" height="50" relative="1" as="geometry">
            <mxPoint x="1402" y="49" as="sourcePoint" />
            <mxPoint x="1409" y="49" as="targetPoint" />
          </mxGeometry>
        </mxCell>
        <mxCell id="PC9kTfX994w1YG4X2F00-150" value="" style="endArrow=none;html=1;rounded=0;" edge="1" parent="1">
          <mxGeometry width="50" height="50" relative="1" as="geometry">
            <mxPoint x="1402" y="53" as="sourcePoint" />
            <mxPoint x="1409" y="53" as="targetPoint" />
          </mxGeometry>
        </mxCell>
        <mxCell id="PC9kTfX994w1YG4X2F00-151" value="" style="endArrow=none;html=1;rounded=0;" edge="1" parent="1">
          <mxGeometry width="50" height="50" relative="1" as="geometry">
            <mxPoint x="1402" y="58" as="sourcePoint" />
            <mxPoint x="1409" y="58" as="targetPoint" />
          </mxGeometry>
        </mxCell>
        <mxCell id="PC9kTfX994w1YG4X2F00-152" value="03/01/2025 11:00:00" style="rounded=0;whiteSpace=wrap;html=1;" vertex="1" parent="1">
          <mxGeometry x="1094" y="110" width="120" height="20" as="geometry" />
        </mxCell>
        <mxCell id="PC9kTfX994w1YG4X2F00-153" value="07/01/2025 16:12:24" style="rounded=0;whiteSpace=wrap;html=1;" vertex="1" parent="1">
          <mxGeometry x="1254" y="110" width="120" height="20" as="geometry" />
        </mxCell>
        <mxCell id="PC9kTfX994w1YG4X2F00-156" value="" style="shape=flexArrow;endArrow=classic;html=1;rounded=0;fillColor=#FF0000;width=7.428571428571429;endSize=5.902857142857143;strokeColor=#FF0000;" edge="1" parent="1">
          <mxGeometry width="50" height="50" relative="1" as="geometry">
            <mxPoint x="660" y="240" as="sourcePoint" />
            <mxPoint x="740" y="240" as="targetPoint" />
          </mxGeometry>
        </mxCell>
      </root>
    </mxGraphModel>
  </diagram>
</mxfile>
